<?xml version="1.0" standalone="no"?>
<!DOCTYPE svg PUBLIC "-//W3C//DTD SVG 20010904//EN"
 "http://www.w3.org/TR/2001/REC-SVG-20010904/DTD/svg10.dtd">
<svg version="1.0" xmlns="http://www.w3.org/2000/svg"
 width="2363.000000pt" height="2363.000000pt" viewBox="0 0 2363.000000 2363.000000"
 preserveAspectRatio="xMidYMid meet">
<metadata>
Created by potrace 1.14, written by Peter Selinger 2001-2017
</metadata>
<g transform="translate(0.000000,2363.000000) scale(0.100000,-0.100000)"
fill="#000000" stroke="none">
<path d="M12898 23066 c-1 -2 -50 -6 -108 -10 -124 -8 -147 -11 -305 -37 -162
-26 -159 -26 -250 -49 -44 -12 -91 -23 -104 -26 -54 -11 -294 -96 -391 -139
-58 -26 -193 -77 -300 -115 -107 -38 -253 -89 -325 -115 -71 -25 -137 -48
-145 -50 -18 -5 -590 -206 -680 -239 -36 -13 -146 -52 -245 -86 -99 -34 -189
-66 -200 -70 -11 -5 -74 -27 -140 -50 -212 -74 -594 -208 -1055 -370 -298
-105 -571 -201 -670 -235 -52 -19 -174 -61 -270 -95 -96 -34 -251 -89 -345
-121 -93 -33 -188 -67 -210 -75 -22 -8 -92 -32 -155 -54 -63 -21 -153 -53
-200 -70 -47 -18 -89 -33 -95 -34 -5 -2 -17 -6 -25 -9 -17 -6 -106 -37 -535
-187 -159 -56 -364 -128 -455 -160 -91 -32 -185 -65 -210 -73 -563 -192 -870
-324 -1215 -522 -182 -104 -528 -344 -617 -427 -7 -7 -45 -40 -83 -73 -92 -77
-292 -278 -386 -385 -237 -271 -434 -569 -603 -909 -139 -278 -205 -452 -231
-601 -3 -19 -12 -66 -20 -105 -8 -38 -16 -86 -19 -105 -3 -19 -8 -46 -11 -60
-3 -14 -9 -50 -15 -80 -11 -60 -17 -92 -25 -130 -2 -14 -7 -41 -10 -60 -3 -19
-9 -55 -15 -80 -14 -69 -52 -272 -55 -295 -2 -18 -25 -146 -40 -220 -3 -16 -8
-43 -11 -60 -3 -16 -18 -102 -35 -190 -37 -203 -58 -313 -63 -345 -2 -14 -16
-86 -30 -160 -14 -74 -28 -151 -31 -170 -3 -19 -12 -69 -20 -110 -15 -77 -21
-109 -31 -170 -4 -19 -7 -39 -9 -45 -1 -5 -5 -28 -9 -50 -4 -22 -14 -74 -22
-115 -7 -41 -16 -88 -19 -105 -11 -66 -16 -91 -20 -115 -13 -64 -16 -77 -20
-105 -3 -16 -12 -64 -20 -105 -7 -41 -21 -113 -29 -160 -9 -47 -29 -157 -45
-245 -17 -88 -32 -171 -35 -185 -2 -14 -7 -43 -11 -65 -4 -22 -9 -49 -11 -60
-2 -11 -8 -42 -14 -70 -5 -27 -11 -61 -14 -75 -13 -79 -69 -386 -81 -447 -8
-39 -17 -89 -21 -110 -3 -21 -7 -45 -9 -53 -3 -8 -7 -33 -11 -55 -7 -43 -7
-44 -17 -90 -3 -16 -9 -46 -11 -65 -3 -19 -8 -46 -11 -60 -6 -29 -32 -173 -39
-212 -3 -15 -11 -63 -20 -105 -8 -43 -18 -95 -21 -117 -3 -21 -7 -41 -9 -45
-2 -3 -7 -26 -10 -51 -3 -25 -8 -56 -11 -70 -3 -14 -14 -72 -25 -130 -10 -58
-26 -143 -35 -190 -9 -47 -17 -94 -19 -105 -2 -11 -6 -33 -9 -50 -4 -16 -9
-46 -12 -65 -6 -38 -21 -117 -36 -190 -5 -25 -11 -58 -14 -75 -4 -30 -38 -219
-75 -410 -10 -55 -21 -116 -25 -135 -6 -39 -30 -169 -45 -245 -5 -27 -12 -66
-15 -85 -3 -19 -9 -55 -15 -80 -5 -25 -16 -85 -25 -135 -9 -49 -23 -124 -30
-165 -8 -41 -17 -88 -20 -105 -2 -16 -7 -41 -10 -55 -6 -29 -42 -228 -50 -279
-3 -19 -8 -37 -10 -41 -10 -17 -19 -205 -19 -415 0 -253 8 -394 34 -590 15
-112 19 -136 25 -165 3 -14 8 -41 11 -60 8 -49 54 -252 59 -260 2 -4 6 -17 8
-31 19 -101 122 -399 197 -570 78 -177 182 -375 263 -502 20 -31 37 -61 37
-66 0 -4 9 -16 20 -26 11 -10 20 -22 20 -27 0 -8 139 -207 164 -235 6 -6 22
-26 36 -44 60 -79 223 -270 248 -289 15 -12 43 -36 62 -53 19 -18 62 -54 95
-82 33 -27 96 -81 140 -120 45 -38 105 -90 135 -115 29 -25 65 -56 79 -69 14
-13 42 -35 61 -50 19 -14 42 -33 50 -42 8 -9 44 -40 79 -70 36 -30 72 -61 81
-69 9 -8 40 -35 70 -60 30 -25 77 -65 105 -89 27 -24 61 -53 75 -65 591 -505
1502 -1285 1554 -1330 33 -28 64 -56 70 -61 6 -6 25 -21 41 -34 17 -12 46 -37
65 -54 19 -18 77 -68 129 -112 52 -44 162 -138 245 -210 84 -71 176 -150 205
-175 30 -25 59 -50 65 -55 6 -6 61 -52 121 -104 61 -51 121 -103 135 -115 31
-27 296 -255 329 -282 13 -10 28 -24 35 -29 6 -6 121 -105 256 -220 135 -116
256 -220 270 -232 14 -11 79 -67 145 -123 122 -104 199 -170 289 -249 28 -24
62 -53 76 -65 27 -23 147 -125 166 -141 86 -73 124 -108 163 -150 329 -357
670 -613 1136 -854 75 -39 156 -76 380 -172 143 -61 476 -166 652 -205 121
-26 239 -50 303 -59 25 -4 52 -9 60 -10 8 -1 44 -6 80 -10 36 -4 74 -9 85 -11
163 -32 790 -24 995 12 14 2 45 7 70 10 85 10 285 55 425 95 125 36 423 147
450 168 5 4 53 23 105 41 124 42 584 201 725 250 61 21 146 50 190 65 44 15
87 29 95 32 8 3 65 23 125 43 61 21 220 76 355 123 135 46 281 97 325 111 44
15 89 31 100 36 11 5 54 20 95 33 41 14 201 69 355 122 154 53 345 119 425
146 80 28 177 61 215 74 39 13 162 56 275 95 113 39 252 87 310 106 58 20 112
38 120 41 8 3 20 7 25 9 6 2 42 14 80 28 65 23 387 134 760 263 88 30 201 68
250 85 50 16 99 33 110 38 11 5 92 33 180 64 88 30 259 89 380 131 121 42 227
78 235 80 8 2 15 4 15 4 0 1 104 37 230 80 475 163 532 183 610 213 175 66
402 172 575 268 52 29 104 58 115 64 11 6 31 18 45 27 108 68 166 105 175 111
6 5 53 38 105 75 389 273 745 637 1004 1028 52 77 101 154 110 170 9 17 35 62
57 100 69 119 184 364 239 505 29 74 56 144 60 155 38 94 124 390 155 537 9
40 18 82 20 93 10 44 25 122 30 155 3 19 8 42 10 50 2 8 7 39 10 69 4 30 8 62
10 71 3 16 9 61 20 160 3 25 10 70 15 100 6 30 13 69 16 85 3 17 18 98 34 180
16 83 32 166 35 185 3 19 8 42 10 50 2 8 7 30 10 48 8 47 14 84 20 112 3 14 7
36 10 50 5 25 10 51 20 100 2 14 6 36 9 50 5 29 44 233 51 270 3 14 8 41 11
60 3 19 7 42 9 50 2 8 7 31 10 50 3 19 14 78 25 130 22 108 31 156 35 185 2
11 17 92 34 180 17 88 47 243 67 345 19 102 37 196 40 210 2 14 7 36 9 50 3
14 23 122 46 240 22 118 43 224 45 235 2 11 6 29 8 40 8 39 38 200 42 225 2
14 9 45 14 70 5 25 23 119 40 210 17 91 35 185 40 210 5 25 25 131 45 235 20
105 47 246 60 315 13 69 37 199 55 290 17 91 35 185 40 210 5 25 12 59 15 75
10 57 16 90 20 105 2 8 7 31 10 50 3 19 10 58 15 85 5 28 12 62 14 78 3 15 7
35 10 45 3 9 7 33 10 52 7 40 7 44 46 245 34 172 36 182 55 290 8 44 17 91 20
105 3 14 12 61 20 105 17 93 21 113 35 180 6 28 13 61 15 75 3 14 17 87 31
162 14 76 27 147 29 159 2 11 7 50 10 87 4 37 8 80 10 97 26 208 26 865 1
1065 -2 14 -6 50 -10 80 -4 30 -9 73 -12 95 -3 22 -9 65 -14 95 -5 30 -12 73
-15 95 -4 22 -10 56 -15 75 -5 19 -12 50 -15 69 -12 72 -86 342 -123 451 -112
328 -243 597 -430 884 -73 113 -223 322 -242 336 -3 3 -13 14 -21 26 -23 35
-137 162 -244 273 -82 85 -327 301 -649 575 -27 22 -54 46 -60 51 -6 6 -40 35
-76 65 -35 30 -76 65 -90 77 -14 12 -110 94 -215 183 -104 89 -215 184 -245
210 -30 26 -109 93 -175 149 -165 142 -227 194 -239 206 -6 6 -38 33 -71 60
-33 28 -71 60 -85 72 -14 11 -95 81 -180 153 -85 73 -168 144 -183 157 -16 14
-59 50 -95 81 -37 31 -78 66 -91 77 -13 11 -29 25 -35 30 -6 6 -58 51 -116 99
-58 49 -107 92 -110 95 -3 4 -30 26 -60 51 -30 25 -57 48 -60 51 -3 3 -34 30
-70 60 -36 29 -69 58 -75 64 -5 6 -68 61 -140 121 -71 60 -143 121 -160 135
-16 15 -115 100 -220 189 -104 89 -212 181 -240 205 -27 23 -135 115 -240 204
-104 89 -201 172 -215 184 -14 13 -117 101 -230 197 -113 96 -207 177 -210
180 -3 3 -32 27 -65 55 -33 27 -62 52 -65 55 -3 3 -66 57 -140 121 -411 350
-486 415 -500 429 -35 36 -239 219 -290 260 -30 25 -66 55 -80 67 -14 13 -28
23 -32 23 -3 0 -13 6 -20 13 -19 18 -183 136 -248 179 -169 110 -271 168 -445
257 -118 61 -158 79 -305 143 -75 33 -81 36 -185 74 -88 32 -154 54 -335 109
-25 7 -90 25 -145 38 -88 22 -129 31 -235 52 -28 6 -124 21 -185 30 -22 4 -51
8 -64 10 -13 2 -57 7 -98 10 -41 4 -84 9 -96 11 -24 6 -513 14 -519 10z"/>
</g>
</svg>
